<svg data-name="Layer 1" xmlns="http://www.w3.org/2000/svg" viewBox="0 0 198 54"><path d="M48.1 14.34h-4.87L44.48 8h-4.24l-3.88 19.9h9.12c2.68 0 3.91-1.54 4.33-3.74l1.2-6c.43-2.26-.26-3.82-2.91-3.82zm-1.42 4.33l-.88 4.85a.82.82 0 01-.82.77h-3.63L42.58 18h3.64c.4 0 .57.19.46.7zM16 8H7.86l-.77 3.87H14c.43 0 .54.23.49.72l-.89 4.59H9.31L9.94 14 0 18.75h7.4l-.63 3.18 6.53-3.13-.88 4.54a.77.77 0 01-.82.68H4.72L4 27.9h8.15c2.59 0 3.85-1.54 4.25-3.74l2.47-12.42C19.23 9.55 18.59 8 16 8zm45.56 0a4.09 4.09 0 00-4.36 3.74L53.72 24h-1.77l-.82 3.88h16.33l.83-3.88H67l3.07-16zm1.14 16h-4.54l3.11-11.45a.71.71 0 01.7-.72h3.12zM22.68 11.74L18.1 27.9h4.48l4.16-15.33a.71.71 0 01.7-.72h3.69L28 27.9h4.3L36.13 8h-9a4.11 4.11 0 00-4.45 3.74zm77.4 16.16h4.59l1.58-3.69h4.11l-.3 3.68h4.76L115.33 8h-5.76zm11.2-14.68l-.64 7.78h-3l3.36-7.78zM149.14 8h-5.47c-2.59 0-3.85 1.54-4.3 3.74L137 24.17c-.43 2.2.23 3.74 2.85 3.74h5.5c2.65 0 3.88-1.54 4.3-3.74l2.47-12.42c.36-2.2-.29-3.75-2.98-3.75zm-1.42 4.56l-2.1 10.77a.67.67 0 01-.62.67h-3.2c-.43 0-.54-.17-.49-.68l2-10.77c.14-.49.37-.72.77-.72h3.08c.45.05.65.25.56.74zM127.06 8a4.09 4.09 0 00-4.36 3.74L119.24 24h-1.78l-.82 3.88H133l.77-3.88h-1.28l3.13-16zm1.14 16h-4.53l3.11-11.45a.71.71 0 01.72-.69h3.09zm-25.64-12.26C103 9.55 102.33 8 99.68 8h-9l-3.9 19.9h4.11l1.17-5.76H97c2.62 0 3.74-1.6 4.22-3.79zm-5.33 5.76c-.12.54-.37.72-.82.72h-3.65l1.33-6.34h3.62c.43 0 .6.23.54.72zM83.21 8H77.8c-2.65 0-3.93 1.54-4.42 3.74L71 24.17c-.39 2.2.26 3.74 2.85 3.74h5.47c2.68 0 3.93-1.54 4.33-3.74l2.47-12.42c.42-2.2-.24-3.75-2.91-3.75zm-1.42 4.56l-2.08 10.78a.82.82 0 01-.82.68h-3c-.4 0-.54-.17-.49-.68l2.14-10.77a.69.69 0 01.66-.72h3.1c.37.03.6.23.49.72zm69.38 15.34h4.18l.89-4.58h-4.18l-.89 4.58zM177.95 14l-2.07 10.6c-.06.28-.16.38-.37.38h-2.19c-.2 0-.26-.1-.21-.38l2.07-10.6h-3.05L170 25c-.32 1.65.12 2.82 2.14 2.82h3.5a3 3 0 003.2-2.82L181 14zm-11.06 0h-6.3l-2.67 13.92h2.87l.82-4H163l.63 4h3.18l-.81-4.14a3 3 0 002-2.54l.91-4.62c.3-1.57-.18-2.62-2.02-2.62zm-1.7 6.66c-.08.38-.26.5-.55.5h-2.56l.91-4.47h2.52c.3 0 .42.16.38.5z" fill="#ce1037"/><path d="M5.18 34.52A2 2 0 003 36.39L.72 44.48H3l2-7.68a.35.35 0 01.35-.35h1.89l-1.6 8h2.15l1.94-10zm42.65 0h-.14l-3.63 7.1-.85-7.1h-2.16l-1.98 9.96h2.15l.97-4.93.41 4.93h1.8l2.44-4.95-.99 4.95h2.16l1.95-9.96h-2.13zm-13.28 0a2 2 0 00-2.16 1.87l-.6 3c-.18.94 0 1.65.82 1.84l-1.91 3.25H33l1.75-3.17h.92L35 44.48h2.16l1.94-10zM36 39.46h-1.81c-.2 0-.29-.1-.23-.35l.44-2.43a.43.43 0 01.43-.39h1.79zm-9.61-4.94a2 2 0 00-2.18 1.87l-1.74 6.15h-.89l-.39 1.94h8.17l.39-1.94h-.65l1.56-8zm.57 8h-2.28l1.55-5.76a.35.35 0 01.35-.35h1.56zm-6.77-8h-2.71a2.1 2.1 0 00-2.21 1.87l-.46 2.24H13l.82-4.11h-2.16l-2 10h2.16l.82-4.11h1.88l-.42 2.19c-.2 1.09.13 1.87 1.42 1.87h2.74a2 2 0 002.16-1.87l1.23-6.22c.21-1.09-.12-1.86-1.46-1.86zm-.72 2.28l-1 5.39a.39.39 0 01-.41.35h-1.55c-.2 0-.27-.08-.24-.35l1.07-5.39a.35.35 0 01.33-.36h1.57c.18.01.29.12.23.36zm73.12-2.28a2 2 0 00-2.18 1.87l-1.74 6.15h-.89l-.4 1.94h8.17l.39-1.94h-.65l1.56-8zm.57 8h-2.27l1.55-5.76a.35.35 0 01.35-.35h1.56zm9.25-4.13h-2.15l.75-3.87H98.9l-1.93 9.96h2.1l.84-4.34h2.15l-.84 4.34h2.09l1.93-9.96h-2.09l-.74 3.87zm-30.43-3.87L70 44.48h2.15l1.95-9.96h-2.12zm39.69 0h-2.74a2.06 2.06 0 00-2.16 1.87l-1.2 6.22c-.21 1.09.12 1.87 1.42 1.87h2.76a2 2 0 002.14-1.87l1.23-6.22c.22-1.1-.12-1.87-1.45-1.87zM111 36.8l-1.05 5.39a.34.34 0 01-.33.35H108c-.21 0-.27-.08-.24-.35l1-5.39c.07-.24.19-.35.39-.35h1.54c.21 0 .31.11.31.35zm-51-2.28h-4.55l-2 10H58a2 2 0 002.17-1.88l.27-1.41c.22-1.15-.11-1.85-1.41-1.91a2 2 0 002.19-1.87l.2-1c.23-1.16-.09-1.93-1.42-1.93zm-1.44 5.93l-.35 1.86c0 .27-.19.37-.41.37h-1.85l.5-2.6h1.83c.26 0 .32.08.27.37zm.73-3.75L59 38.1c0 .27-.16.39-.39.39h-1.84l.42-2.16H59c.21 0 .3.12.26.37zm8.35.99h-2.46l.64-3.17h-2.11l-1.94 10h4.57a2 2 0 002.16-1.87l.61-3c.2-1.18-.11-1.96-1.47-1.96zm-.72 2.16l-.44 2.47a.43.43 0 01-.43.39h-1.8l.62-3.17h1.83c.2-.04.3.06.23.31zm13.62-5.33H76l-1.94 9.96h2.11l1.58-8.15h2.43l.36-1.81zm5.76 0h-2.74a2.06 2.06 0 00-2.11 1.87l-1.2 6.22c-.21 1.09.12 1.87 1.42 1.87h2.76a2 2 0 002.16-1.87l1.23-6.22c.18-1.1-.17-1.87-1.52-1.87zm-.74 2.28l-1.05 5.39a.34.34 0 01-.33.35H82.6c-.21 0-.27-.08-.24-.35l1-5.39c.07-.24.18-.35.39-.35h1.54c.27 0 .34.11.27.35z" fill="#76bc21"/></svg>